<?xml version="1.0" encoding="utf-8"?>
<!-- Generator: Adobe Illustrator 20.1.0, SVG Export Plug-In . SVG Version: 6.00 Build 0)  -->
<svg version="1.1" id="图层_1" xmlns="http://www.w3.org/2000/svg" xmlns:xlink="http://www.w3.org/1999/xlink" x="0px" y="0px"
	 viewBox="0 0 50 50" style="enable-background:new 0 0 50 50;" xml:space="preserve">
<style type="text/css">
	.st0{fill:#B3B3B3;}
</style>
<path class="st0" d="M34.9,12.9c-1.2,0-2.2,1-2.2,2.2c0,1.1,1,2.2,2.2,2.1c1.2,0,2.2-1,2.2-2.2C37.1,13.9,36.1,12.9,34.9,12.9z"/>
<path d="M43.1,14.9C42.4,10.8,40,8,35.9,7.1c-2-0.5-4.2-0.6-6.3-0.6c-4.5,0-9,0-13.5,0.2c-2,0.1-3.9,0.8-5.5,2c-2.8,2.1-3.8,5-4,8.3
	c-0.1,2.7-0.2,14,0.1,17c0.4,4.6,3.1,7.9,7.5,8.9c1.7,0.4,3.6,0.5,5.4,0.5c4.7,0,9.3,0,14-0.2c1.8,0,3.5-0.6,5-1.5
	c3.1-1.9,4.6-4.8,4.7-8.3c0.2-4.4,0.2-8.9,0.2-13.3C43.5,18.4,43.4,16.6,43.1,14.9z M40,33.3c-0.4,4.4-2.8,6.7-7.4,6.8
	c-3.6,0.1-7.2,0.1-10.8,0.1c-1.9,0-3.8,0-5.6-0.2c-3.9-0.4-6.2-2.7-6.4-6.6c-0.1-4.4-0.1-8.9,0-13.3c0-1.9,0.1-3.8,0.6-5.6
	c0.7-2.7,3-4.5,6-4.6c5.8-0.1,11.6-0.1,17.4,0c3.5,0.1,5.9,2.5,6.2,6c0.2,3,0.2,5.9,0.3,8.5C40.2,27.6,40.3,30.5,40,33.3z"/>
<path d="M25,15.4c-5.2,0-9.6,4.3-9.6,9.4c0,5.2,4.3,9.6,9.4,9.6c5.3,0,9.6-4.3,9.6-9.5C34.4,19.8,30.2,15.5,25,15.4z M25,31.2
	c-3.7,0-6.3-2.8-6.2-6.5c0-3.3,2.9-6,6.3-6c3.4,0.1,6.1,2.9,6.1,6.3S28.4,31.2,25,31.2z"/>
<path d="M34.9,17.2c-1.2,0-2.2-1-2.2-2.2c0-1.1,1.1-2.2,2.2-2.2c1.1,0,2.1,1,2.2,2.1C37.1,16.2,36.1,17.2,34.9,17.2z"/>
</svg>
