<?xml version="1.0" encoding="utf-8"?>
<!-- Generator: Adobe Illustrator 20.1.0, SVG Export Plug-In . SVG Version: 6.00 Build 0)  -->
<svg version="1.1" id="图层_1" xmlns="http://www.w3.org/2000/svg" xmlns:xlink="http://www.w3.org/1999/xlink" x="0px" y="0px"
	 viewBox="0 0 1350 600" style="enable-background:new 0 0 1350 600;" xml:space="preserve">
<style type="text/css">
	.st0{fill:#FFFFFF;}
	.st1{fill:none;}
	.st2{font-family:'GillSans';}
	.st3{font-size:26px;}
	.st4{writing-mode:tb;}
	.st5{font-family:'STFangsong';}
	.st6{font-size:26.2561px;glyph-orientation-vertical:0;}
	.st7{font-size:26.2561px;glyph-orientation-vertical:1;}
</style>
<rect y="0.4" class="st0" width="1354.8" height="599.2"/>
<g>
	<rect x="527" y="280.1" class="st1" width="793.9" height="300.6"/>
	<text transform="matrix(1.0098 0 0 1 526.9775 302.0156)"><tspan x="0" y="0" class="st2 st3">Je suis designer graphique interactif et photographe artistique. Je suis pas</tspan><tspan x="765.7" y="0" class="st2 st3">-</tspan><tspan x="0" y="31.2" class="st2 st3">sionnée par le design graphique (la mise en page, la typographie, la reliure, </tspan><tspan x="0" y="62.4" class="st2 st3">le packaging, la vidéo, l’animation), la photographie, le web design, le </tspan><tspan x="0" y="93.6" class="st2 st3">design d’espace interactif (la mise en scène, l’installation de son et image).  </tspan><tspan x="0" y="124.8" class="st2 st3">Pour moi, le design est un mode de vie, il est présent dans chaque partie </tspan><tspan x="0" y="156" class="st2 st3">de la vie. J’ai fait des formations en communication visuelle en Chine et en </tspan><tspan x="0" y="187.2" class="st2 st3">design graphique interactif en France. Je suis curieuse et ouverte d’esprit. </tspan><tspan x="0" y="218.4" class="st2 st3">J&apos;aime découvrir de nouveaux horizons notamment grâce à des voyages et </tspan><tspan x="0" y="249.6" class="st2 st3">lors de rencontres d&apos;habitants locaux. </tspan></text>
	<rect x="525.9" y="40.5" class="st1" width="769.5" height="343.8"/>
	<text transform="matrix(1.0098 0 0 1 525.9492 62.4468)"><tspan x="0" y="0" class="st2 st3">I’m interactive graphic designer and art photographer. I&apos;m passionate </tspan><tspan x="0" y="31.2" class="st2 st3">about everything, especially in graphic design, layout, typography, book </tspan><tspan x="0" y="62.4" class="st2 st3">binding, packaging, video, animation, photography, web design, interac</tspan><tspan x="734.7" y="62.4" class="st2 st3">-</tspan><tspan x="0" y="93.6" class="st2 st3">tive design in the space. For me, design is a way of life, he was involved </tspan><tspan x="0" y="124.8" class="st2 st3">in every part of life. I&apos;ve studied in visual communication in China, and </tspan><tspan x="0" y="156" class="st2 st3">graphic design interactive in France. I love to travel and communicate </tspan><tspan x="0" y="187.2" class="st2 st3">with peoples who from different cultures and who have different work. </tspan></text>
	<rect x="19.1" y="40.1" class="st1" width="462.1" height="524.4"/>
	<text transform="matrix(1 0 0 0.9902 468.1255 40.1191)" class="st4"><tspan x="0" y="0" class="st5 st6">我是个对什么都充满热情喝好奇的交互平面</tspan><tspan x="-31.5" y="0" class="st5 st6">设计师和艺术摄影师，尤其是对平面设计</tspan><tspan x="-63" y="0" class="st5 st6">（比如排版、字体、装帧、包装、</tspan><tspan x="-63" y="405.3" class="st5 st7"> </tspan><tspan x="-63" y="412.5" class="st5 st6">影像，动</tspan><tspan x="-94.5" y="0" class="st5 st6">画），摄影，网页设计，空间交互和灯光</tspan><tspan x="-126" y="0" class="st5 st6">（装置，布展）。</tspan><tspan x="-126" y="216.1" class="st5 st7"> </tspan><tspan x="-157.5" y="0" class="st5 st6">对我来说，设计已经成为一种生活方式，他</tspan><tspan x="-189" y="0" class="st5 st6">渗透到了我生活的各个部分。</tspan><tspan x="-220.6" y="0" class="st5 st6">我有两段学习经历在中国学习视觉传达，在</tspan><tspan x="-252.1" y="0" class="st5 st6">法国学习交互平面设计。我喜欢旅行，也喜</tspan><tspan x="-283.6" y="0" class="st5 st6">欢和来自不同文化背景不同行业的人交流。</tspan><tspan x="-315.1" y="0" class="st5 st6">中文是我的母语，我还会说法语，</tspan><tspan x="-315.1" y="405.3" class="st5 st7"> </tspan><tspan x="-315.1" y="412.5" class="st5 st6">基础的英</tspan><tspan x="-346.6" y="0" class="st5 st6">语以及一点点日语。语言的逻辑思维对生活</tspan><tspan x="-378.1" y="0" class="st5 st6">方式的影响真的很大，很有趣。欢迎大家跟</tspan><tspan x="-409.6" y="0" class="st5 st6">我交流好玩的。</tspan></text>
</g>
</svg>
