<?xml version="1.0" encoding="utf-8"?>
<!-- Generator: Adobe Illustrator 20.1.0, SVG Export Plug-In . SVG Version: 6.00 Build 0)  -->
<svg version="1.1" id="图层_1" xmlns="http://www.w3.org/2000/svg" xmlns:xlink="http://www.w3.org/1999/xlink" x="0px" y="0px"
	 viewBox="0 0 50 50" style="enable-background:new 0 0 50 50;" xml:space="preserve">
<path d="M26.9,18.3v3l0.1,0.1c0-0.1,0.1-0.2,0.1-0.2c1.6-2.5,4.6-3.7,7.5-3.3c3.3,0.2,6.2,2.5,7.1,5.8c0.4,1.5,0.6,3.1,0.6,4.7
	c0,4,0,8.1,0,12.1c0,0.4-0.1,0.5-0.5,0.5c-2.2,0-4.4,0-6.6,0c-0.3,0-0.4-0.1-0.4-0.5c0-3.8,0-7.6,0-11.4c0-1-0.1-2-0.4-3
	c-0.4-1.6-1.9-2.6-3.5-2.4c-2.1,0.1-3.8,1.9-3.9,4c0,2.7,0,5.4,0,8.1c0,1.5,0,3.1,0,4.6c0,0.3-0.1,0.5-0.5,0.5c-2.2,0-4.4,0-6.6,0
	c-0.4,0-0.5-0.1-0.5-0.5c0-6.4,0-12.9,0-19.3c0-0.8,0-1.6,0-2.5c0-0.2,0.1-0.3,0.3-0.3h7L26.9,18.3z"/>
<path d="M15.2,29.6c0,3.6,0,7.2,0,10.8c0,0.4-0.1,0.5-0.5,0.5c-2.2,0-4.4,0-6.7,0c-0.3,0-0.4-0.1-0.4-0.4c0-7.3,0-14.5,0-21.8
	c0-0.3,0.1-0.4,0.4-0.4c2.2,0,4.5,0,6.8,0c0.4,0,0.4,0.1,0.4,0.4C15.2,22.3,15.2,26,15.2,29.6z"/>
<path d="M11.5,15.2c-1.6,0.1-3.2-0.7-3.9-2.2C7,11.7,7.1,10.2,8,9c1.4-1.7,3.9-2.1,5.8-1c1.8,1.1,2.4,3.4,1.4,5.3
	c-0.2,0.4-0.6,0.8-0.9,1.1C13.4,14.9,12.5,15.2,11.5,15.2z"/>
</svg>
