<?xml version="1.0" encoding="utf-8"?>
<!-- Generator: Adobe Illustrator 20.1.0, SVG Export Plug-In . SVG Version: 6.00 Build 0)  -->
<svg version="1.1" id="图层_1" xmlns="http://www.w3.org/2000/svg" xmlns:xlink="http://www.w3.org/1999/xlink" x="0px" y="0px"
	 viewBox="0 0 100 100" style="enable-background:new 0 0 100 100;" xml:space="preserve">
<style type="text/css">
	.st0{fill:#231815;}
</style>
<g>
	<path class="st0" d="M93.4,83.9c-6.7,9.7-18.2,15.2-30,14.4l-1-0.1l-0.4-0.9c-5.1-10.7-4.1-23.4,2.6-33.2s18.2-15.2,30.1-14.3
		l1,0.1l0.4,0.9C101.1,61.4,100.1,74.1,93.4,83.9z M64.7,94.7c10.2,0.4,20-4.5,25.8-12.9c5.8-8.4,6.8-19.3,2.8-28.7
		C83,52.7,73.2,57.6,67.4,66S60.6,85.3,64.7,94.7z"/>
	<ellipse transform="matrix(0.5661 -0.8244 0.8244 0.5661 -26.6946 97.172)" class="st0" cx="79" cy="73.9" rx="15.7" ry="15.7"/>
</g>
<g>
	<g>
		<path d="M0,54.8v-4.6l32.1,12.9v1l-26,10.4l26,10.5v1L0,99v-4.6l22-8.8L0,76.7v-4.3l22-8.9L0,54.8z"/>
		<path d="M0,37.4V19.3h4.1v13.5h9.7V19.7h4.1v13.1h9.9v-14h4.1v18.5H0z"/>
		<path d="M0,4.6V0h31.9v4.6H0z"/>
	</g>
	<g>
		<path d="M56.7,0H62v32.5h16.8v4.9H56.7V0z"/>
		<path d="M94.5,0h5.3v37.4h-5.3V0z"/>
	</g>
</g>
</svg>
