<?xml version="1.0" encoding="utf-8"?>
<!-- Generator: Adobe Illustrator 20.1.0, SVG Export Plug-In . SVG Version: 6.00 Build 0)  -->
<svg version="1.1" id="图层_1" xmlns="http://www.w3.org/2000/svg" xmlns:xlink="http://www.w3.org/1999/xlink" x="0px" y="0px"
	 viewBox="0 0 50 35.7" style="enable-background:new 0 0 50 35.7;" xml:space="preserve">
<style type="text/css">
	.st0{fill:#050505;}
</style>
<path class="st0" d="M49.2,0c0.2,0,0.4-0.1,0.4,0.1s-0.1,0.2-0.2,0.3L44,5.9l-6.3,6.3l-6.5,6.5L30,19.9c-2.8,2.7-7.3,2.7-10-0.1
	c0,0,0,0-0.1-0.1c-1.5-1.5-3-3-4.5-4.5l-4.7-4.7L7,6.8L2.2,2.1L0.6,0.4C0.5,0.3,0.3,0.2,0.4,0.1S0.6,0,0.8,0L49.2,0z"/>
<path class="st0" d="M5.1,35.7H4.2c-0.1,0-0.3,0-0.3-0.1s0.1-0.2,0.2-0.2l1.9-2l10.5-10.5c0.3-0.3,0.6-0.6,0.9-0.9s0.4-0.3,0.7,0
	c1.5,1.5,3.5,2.5,5.6,2.7c3,0.4,6-0.5,8.2-2.6c0.5-0.4,0.5-0.4,0.9,0l7.3,7.3l5.9,5.9c0.1,0.1,0.3,0.2,0.2,0.3
	c-0.1,0.2-0.2,0.1-0.4,0.1L5.1,35.7z"/>
<path class="st0" d="M0,19.6c0-5,0-9.9,0-14.9c0-0.2-0.1-0.4,0.1-0.5s0.3,0.2,0.4,0.3l14.7,14.7c0.4,0.4,0.4,0.4,0,0.8L0.5,34.8
	c-0.1,0.1-0.1,0.1-0.2,0.2C0.1,35.1,0,35,0,34.8s0-0.3,0-0.5C0,29.4,0,24.5,0,19.6z"/>
<path class="st0" d="M50,34.3c0,0.1,0,0.2,0,0.3c0,0.1,0.1,0.3-0.1,0.4s-0.3-0.1-0.4-0.2L34.8,20c-0.4-0.4-0.4-0.4,0-0.8L49.5,4.5
	c0.1-0.1,0.2-0.3,0.4-0.2S50,4.5,50,4.7C50,9.7,50,29.4,50,34.3z"/>
</svg>
