<?xml version="1.0" encoding="utf-8"?>
<!-- Generator: Adobe Illustrator 20.1.0, SVG Export Plug-In . SVG Version: 6.00 Build 0)  -->
<svg version="1.1" id="图层_1" xmlns="http://www.w3.org/2000/svg" xmlns:xlink="http://www.w3.org/1999/xlink" x="0px" y="0px"
	 viewBox="0 0 50 50" style="enable-background:new 0 0 50 50;" xml:space="preserve">
<path d="M23.4,35.8c-0.1,0.5-0.3,0.9-0.4,1.2c-0.7,2.2-1.2,4.6-2.1,6.7c-0.6,1.5-1.8,2.9-2.7,4.3c-0.1,0.2-0.5,0.4-0.7,0.4
	S17.1,48,17,47.7c-0.1-0.5-0.1-1-0.2-1.5c-0.3-3.8,0.4-7.4,1.4-11.1c0.6-2.4,1.2-4.7,1.7-7.1c0.1-0.3,0-0.6-0.1-0.8
	C19,25,19,22.8,20.1,20.6c0.9-1.8,2.8-2.6,4.8-2.1c1.1,0.3,1.9,1.5,2,2.8c0.1,2-0.5,3.8-1.1,5.7c-0.3,0.8-0.5,1.7-0.7,2.5
	c-0.3,1.4-0.1,2.6,1.1,3.5c1.2,1,3,1,4.5,0.1c1.9-1.1,3-2.9,3.6-4.9c0.6-1.9,1-4,1-6c0-4.4-2.8-7.6-7.2-8.2
	c-3.8-0.5-7.1,0.3-9.7,3.1c-2.4,2.6-3.5,5.7-2.6,9.2c0.2,0.7,0.6,1.4,1.1,2c0.4,0.6,0.6,1.1,0.4,1.8c-0.1,0.5-0.2,0.9-0.3,1.4
	c-0.3,1-0.8,1.3-1.7,0.9c-1.9-0.8-3.1-2.4-3.7-4.3c-1.4-4.1-0.7-8,1.7-11.6c2.5-3.8,6.2-5.8,10.6-6.4c2.1-0.3,4.1-0.3,6.2,0
	c5.1,0.8,9.8,4.5,10.9,9.7c1,4.9,0.2,9.7-2.8,13.8c-2.5,3.4-6,4.9-10.3,4.4c-1.3-0.1-2.4-0.7-3.4-1.6C23.9,36.2,23.7,36,23.4,35.8z"
	/>
</svg>
