<?xml version="1.0" encoding="utf-8"?>
<!-- Generator: Adobe Illustrator 20.1.0, SVG Export Plug-In . SVG Version: 6.00 Build 0)  -->
<svg version="1.1" id="图层_1" xmlns="http://www.w3.org/2000/svg" xmlns:xlink="http://www.w3.org/1999/xlink" x="0px" y="0px"
	 viewBox="0 0 1350 360" style="enable-background:new 0 0 1350 360;" xml:space="preserve">
<style type="text/css">
	.st0{fill:#FFFFFF;}
	.st1{fill:#717071;}
	.st2{fill:none;}
	.st3{font-family:'GillSans';}
	.st4{font-size:69.7612px;}
	.st5{fill:#C8C9CA;}
	.st6{fill:none;stroke:#C8C9CA;stroke-width:2;stroke-miterlimit:10;}
	.st7{fill:none;stroke:#717071;stroke-width:2;stroke-miterlimit:10;}
	.st8{font-size:20.6001px;}
</style>
<rect y="-0.5" class="st0" width="1350" height="361"/>
<g>
	<g>
		<circle class="st1" cx="102.1" cy="93.4" r="60.4"/>
		<circle class="st1" cx="102.1" cy="93.4" r="60.4"/>
		<rect x="71.8" y="60.5" class="st2" width="80.9" height="69.3"/>
		<text transform="matrix(1 0 0 1 71.7917 119.3151)" class="st0 st3 st4">Ps</text>
	</g>
	<g>
		<circle class="st1" cx="265.8" cy="93.4" r="60.4"/>
		<circle class="st1" cx="265.8" cy="93.4" r="60.4"/>
		<rect x="236.3" y="57.5" class="st2" width="80.9" height="69.3"/>
		<text transform="matrix(1 0 0 1 236.3442 116.362)" class="st0 st3 st4">Ai</text>
	</g>
	<g>
		<circle class="st5" cx="1247.9" cy="93.4" r="60.4"/>
		<path class="st1" d="M1225.4,37.4c-22.2,8.9-37.9,30.7-37.9,56.1c0,25.4,15.7,47.1,37.9,56.1V37.4z"/>
		<g>
			<rect x="1209.6" y="56.6" class="st2" width="98.7" height="69.3"/>
			<text transform="matrix(1 0 0 1 1209.6442 115.4391)" class="st0 st3 st4">Au</text>
		</g>
	</g>
	<g>
		<circle class="st5" cx="429.5" cy="93.4" r="60.4"/>
		<path class="st1" d="M481.7,63.2c-10.5-18-29.9-30.2-52.3-30.2C396.1,33,369,60,369,93.4c0,33.4,27.1,60.4,60.4,60.4
			c22.4,0,41.8-12.2,52.3-30.2V63.2z"/>
		<g>
			<rect x="400.9" y="58.5" class="st2" width="80.9" height="69.3"/>
			<text transform="matrix(1 0 0 1 400.8674 117.3776)" class="st0 st3 st4">Id</text>
		</g>
	</g>
	<g>
		<circle class="st6" cx="593.2" cy="262.7" r="64.3"/>
		<path class="st7" d="M657.5,262.7c0,35.5-28.8,64.3-64.3,64.3s-64.3-28.8-64.3-64.3s28.8-64.3,64.3-64.3"/>
		<g>
			<rect x="543.8" y="255.6" class="st2" width="99.8" height="27.7"/>
			<text transform="matrix(1 0 0 1 543.8198 272.9655)" class="st1 st3 st8">GRAPHVIZ</text>
		</g>
	</g>
	<g>
		<circle class="st6" cx="429.5" cy="262.7" r="64.3"/>
		<path class="st7" d="M429.5,327c-35.5,0-64.3-28.8-64.3-64.3s28.8-64.3,64.3-64.3"/>
		<g>
			<rect x="386.1" y="255.6" class="st2" width="108.7" height="27.7"/>
			<text transform="matrix(1 0 0 1 386.1484 272.9655)" class="st1 st3 st8">JS&amp;JQuery</text>
		</g>
	</g>
	<g>
		<circle class="st6" cx="756.8" cy="262.7" r="64.3"/>
		<path class="st7" d="M821.2,262.7c0,35.5-28.8,64.3-64.3,64.3s-64.3-28.8-64.3-64.3s28.8-64.3,64.3-64.3"/>
		<g>
			<rect x="718" y="255.6" class="st2" width="88.6" height="27.7"/>
			<text transform="matrix(1 0 0 1 717.9805 272.9655)" class="st1 st3 st8">NodeBox</text>
		</g>
	</g>
	<g>
		<circle class="st6" cx="920.5" cy="262.7" r="64.3"/>
		<path class="st7" d="M920.5,327c-35.5,0-64.3-28.8-64.3-64.3s28.8-64.3,64.3-64.3"/>
		<g>
			<rect x="880.8" y="251.8" class="st2" width="97.7" height="38"/>
			<text transform="matrix(1 0 0 1 880.807 269.2243)" class="st1 st3 st8">Fontforge</text>
		</g>
	</g>
	<g>
		<circle class="st6" cx="102.1" cy="262.7" r="64.3"/>
		<circle class="st7" cx="102.1" cy="262.7" r="64.3"/>
		<g>
			<rect x="75.9" y="254.9" class="st2" width="62.2" height="27.5"/>
			<text transform="matrix(1 0 0 1 75.9407 272.2311)" class="st1 st3 st8">HTML</text>
		</g>
	</g>
	<g>
		<circle class="st6" cx="265.8" cy="262.7" r="64.3"/>
		<path class="st7" d="M287.5,202.1c8.3,3,15.8,7.6,22.1,13.6"/>
		<path class="st7" d="M309.7,215.7c12.6,11.7,20.4,28.5,20.4,47c0,35.5-28.8,64.3-64.3,64.3s-64.3-28.8-64.3-64.3
			s28.8-64.3,64.3-64.3"/>
		<g>
			<rect x="249.6" y="254.9" class="st2" width="62.2" height="27.5"/>
			<text transform="matrix(1 0 0 1 249.5903 272.2311)" class="st1 st3 st8">CSS</text>
		</g>
	</g>
	<g>
		<circle class="st6" cx="1247.9" cy="262.7" r="64.3"/>
		<path class="st7" d="M1247.9,327c-35.5,0-64.3-28.8-64.3-64.3s28.8-64.3,64.3-64.3"/>
		<g>
			<rect x="1228.3" y="254.9" class="st2" width="62.2" height="27.5"/>
			<text transform="matrix(1 0 0 1 1228.26 272.2311)" class="st1 st3 st8">MAX</text>
		</g>
	</g>
	<g>
		<circle class="st6" cx="1084.2" cy="262.7" r="64.3"/>
		<path class="st7" d="M1019.9,262.7c0-35.5,28.8-64.3,64.3-64.3"/>
		<g>
			<rect x="1040.1" y="254.9" class="st2" width="93.8" height="27.5"/>
			<text transform="matrix(1 0 0 1 1040.115 272.2311)" class="st1 st3 st8">123DMake</text>
		</g>
	</g>
	<g>
		<circle class="st5" cx="920.5" cy="93.4" r="60.4"/>
		<path class="st1" d="M920.5,33c-33.4,0-60.4,27.1-60.4,60.4c0,33.4,27.1,60.4,60.4,60.4V33z"/>
		<g>
			<rect x="893.1" y="60.5" class="st2" width="80.9" height="69.3"/>
			<text transform="matrix(1 0 0 1 893.0706 119.3151)" class="st0 st3 st4">Pr</text>
		</g>
	</g>
	<g>
		<circle class="st5" cx="593.2" cy="93.4" r="60.4"/>
		<path class="st1" d="M617.3,38c-7.4-3.2-15.6-5-24.1-5c-33.4,0-60.4,27.1-60.4,60.4c0,33.4,27.1,60.4,60.4,60.4
			c8.6,0,16.7-1.8,24.1-5V38z"/>
		<g>
			<rect x="554.9" y="58.5" class="st2" width="80.9" height="69.3"/>
			<text transform="matrix(1 0 0 1 554.8708 117.3776)" class="st0 st3 st4">Ae</text>
		</g>
	</g>
	<g>
		<circle class="st5" cx="1084.2" cy="93.4" r="60.4"/>
		<path class="st1" d="M1124.7,48.6c-10.7-9.7-24.9-15.6-40.4-15.6c-33.4,0-60.4,27.1-60.4,60.4c0,33.4,27.1,60.4,60.4,60.4
			c15.6,0,29.7-5.9,40.4-15.6V48.6z"/>
		<g>
			<rect x="1056.7" y="58.5" class="st2" width="80.9" height="69.3"/>
			<text transform="matrix(1 0 0 1 1056.7021 117.3776)" class="st0 st3 st4">Lr</text>
		</g>
	</g>
	<g>
		<circle class="st5" cx="756.8" cy="93.4" r="60.4"/>
		<g>
			<rect x="736.3" y="62.4" class="st2" width="80.9" height="69.3"/>
			<text transform="matrix(1 0 0 1 736.3159 121.2526)" class="st0 st3 st4">Fl</text>
		</g>
		<path class="st1" d="M727.1,40.9c-18.3,10.4-30.7,30-30.7,52.5c0,22.6,12.4,42.2,30.7,52.5V40.9z"/>
	</g>
</g>
</svg>
