<?xml version="1.0" encoding="utf-8"?>
<!-- Generator: Adobe Illustrator 20.1.0, SVG Export Plug-In . SVG Version: 6.00 Build 0)  -->
<svg version="1.1" id="图层_1" xmlns="http://www.w3.org/2000/svg" xmlns:xlink="http://www.w3.org/1999/xlink" x="0px" y="0px"
	 viewBox="0 0 50 50" style="enable-background:new 0 0 50 50;" xml:space="preserve">
<path d="M27.5,34.4C26.2,35,25,35,23.8,34.8c-1.6-0.2-3-0.8-4.1-2c-0.4-0.5-0.8-1-1.3-1.5c-0.8-1-1.8-1.7-3.1-1.4
	c-0.9,0.1-1.6,0.5-2,1.3c-0.3,0.7-0.4,1.4-0.2,2.1c0.3,1.3,1,2.3,2,3.2c1.1,1,2.4,1.7,3.8,2.1c2,0.8,4.1,1,6.4,1
	c0.5,0,1.1,0,1.7-0.1c1.8-0.1,3.5-0.5,5.1-1.3c1.8-0.9,3.2-2.1,4-3.9c0.8-1.7,0.9-3.4,0.7-5.2c-0.3-1.6-0.9-3-2.1-4.1
	c-1.1-1-2.5-1.7-3.9-2.1c-2.2-0.6-4.4-1-6.6-1.5c-1.1-0.3-2.2-0.5-3.2-1c-0.4-0.2-0.8-0.5-1.1-0.9c-0.5-0.8-0.5-2,0.1-2.9
	c0.6-0.9,1.5-1.3,2.5-1.5c1-0.2,2.1-0.2,3.2-0.1c1.2,0.1,2.3,0.5,3.2,1.3c0.6,0.5,1.2,1.1,1.7,1.7c0.9,1.1,2.2,1.4,3.5,0.9
	c1.2-0.4,1.8-1.5,1.7-2.8c-0.1-1-0.6-1.9-1.4-2.6c-0.8-0.9-1.9-1.5-2.9-2c-2.1-1-4.4-1.5-6.7-1.5c-0.8,0-1.7,0-2.5,0.1
	c-1.9,0.2-3.7,0.7-5.4,1.8c-1.6,1-2.7,2.3-3.3,4.1c-0.5,1.5-0.5,3-0.2,4.5c0.3,1.6,1.1,2.8,2.4,3.8c1.1,0.8,2.3,1.4,3.5,1.7
	c2.5,0.7,5.1,1.3,7.6,1.9c0.7,0.2,1.5,0.3,2.2,0.7c1.5,0.9,1.7,2.5,1.1,3.7C29.6,33.4,28.6,34,27.5,34.4z"/>
</svg>
