<?xml version="1.0" encoding="utf-8"?>
<!-- Generator: Adobe Illustrator 20.1.0, SVG Export Plug-In . SVG Version: 6.00 Build 0)  -->
<svg version="1.1" id="图层_1" xmlns="http://www.w3.org/2000/svg" xmlns:xlink="http://www.w3.org/1999/xlink" x="0px" y="0px"
	 viewBox="0 0 50 50" style="enable-background:new 0 0 50 50;" xml:space="preserve">
<style type="text/css">
	.st0{fill:#231815;}
</style>
<g>
	<path class="st0" d="M12.8,37.5C4.4,29.1,1,16.8,3.9,5.4l0.3-1l1-0.2c11.4-3.1,23.8,0.1,32.2,8.4s11.7,20.6,8.7,32.2l-0.3,1l-1,0.2
		C33.5,49,21.2,45.8,12.8,37.5z M7.2,7.3C5,17.3,8.1,27.8,15.3,35s17.8,10.1,27.7,7.8C45.3,32.7,42.2,22.2,35,15S17.2,4.9,7.2,7.3z"
		/>
	<ellipse transform="matrix(0.7032 -0.711 0.711 0.7032 -10.3395 25.3539)" class="st0" cx="25.2" cy="25.1" rx="15.7" ry="15.7"/>
</g>
</svg>
